HIERARCHY
ROOT Hip
{
	OFFSET	0.0000	0.0000	0.0000
	CHANNELS 6 Xposition Yposition Zposition Xrotation Yrotation Zrotation
	JOINT LowerSpine
	{
		OFFSET	0.0000	9.3748	-5.0731
		CHANNELS 3 Xrotation Yrotation Zrotation
		JOINT MiddleSpine
		{
			OFFSET	0.0000	8.5552	0.4469
			CHANNELS 3 Xrotation Yrotation Zrotation
			JOINT Chest
			{
				OFFSET	0.0000	10.5861	-2.3564
				CHANNELS 3 Xrotation Yrotation Zrotation
				JOINT Neck
				{
					OFFSET	0.0000	23.8554	-0.4961
					CHANNELS 3 Xrotation Yrotation Zrotation
					JOINT Head
					{
						OFFSET	0.0000	13.4714	3.6642
						CHANNELS 3 Xrotation Yrotation Zrotation
						End Site
						{
							OFFSET	0.0001	18.8231	0.5619
						}
					}
				}
				JOINT LClavicle
				{
					OFFSET	2.4084	23.0216	7.8873
					CHANNELS 3 Xrotation Yrotation Zrotation
					JOINT LShoulder
					{
						OFFSET	14.0702	3.3022	-5.3431
						CHANNELS 3 Xrotation Yrotation Zrotation
						JOINT LForearm
						{
							OFFSET	29.8880	-0.1061	-0.2590
							CHANNELS 3 Xrotation Yrotation Zrotation
							JOINT LHand
							{
								OFFSET	24.9328	0.0723	-0.1493
								CHANNELS 3 Xrotation Yrotation Zrotation
								JOINT LFinger1
								{
									OFFSET	9.6632	0.8451	2.6839
									CHANNELS 3 Xrotation Yrotation Zrotation
									JOINT LFinger11
									{
										OFFSET	3.6146	-0.8814	0.6369
										CHANNELS 3 Xrotation Yrotation Zrotation
										JOINT LFinger12
										{
											OFFSET	2.4676	-0.6020	0.4350
											CHANNELS 3 Xrotation Yrotation Zrotation
											End Site
											{
												OFFSET	1.7559	-0.5242	0.2848
											}
										}
									}
								}
								JOINT LFinger2
								{
									OFFSET	9.8075	0.9759	0.2337
									CHANNELS 3 Xrotation Yrotation Zrotation
									JOINT LFinger21
									{
										OFFSET	4.4692	0.0125	-0.0264
										CHANNELS 3 Xrotation Yrotation Zrotation
										JOINT LFinger22
										{
											OFFSET	2.4771	0.0075	-0.0151
											CHANNELS 3 Xrotation Yrotation Zrotation
											End Site
											{
												OFFSET	2.2250	-0.1571	0.0030
											}
										}
									}
								}
								JOINT LFinger3
								{
									OFFSET	9.2946	0.6512	-2.1989
									CHANNELS 3 Xrotation Yrotation Zrotation
									JOINT LFinger31
									{
										OFFSET	4.0553	-0.2053	-0.2539
										CHANNELS 3 Xrotation Yrotation Zrotation
										JOINT LFinger32
										{
											OFFSET	2.3109	-0.1162	-0.1452
											CHANNELS 3 Xrotation Yrotation Zrotation
											End Site
											{
												OFFSET	2.0433	-0.2512	-0.0966
											}
										}
									}
								}
								JOINT LFinger4
								{
									OFFSET	8.6250	-0.6555	-3.7976
									CHANNELS 3 Xrotation Yrotation Zrotation
									JOINT LFinger41
									{
										OFFSET	2.4944	-0.5202	-0.6886
										CHANNELS 3 Xrotation Yrotation Zrotation
										JOINT LFinger42
										{
											OFFSET	1.8291	-0.3810	-0.5052
											CHANNELS 3 Xrotation Yrotation Zrotation
											End Site
											{
												OFFSET	1.6235	-0.4461	-0.3725
											}
										}
									}
								}
								JOINT LFinger0
								{
									OFFSET	1.9989	-1.5130	1.5154
									CHANNELS 3 Xrotation Yrotation Zrotation
									JOINT LFinger01
									{
										OFFSET	3.7217	-1.2224	2.8061
										CHANNELS 3 Xrotation Yrotation Zrotation
										JOINT LFinger02
										{
											OFFSET	2.4508	-0.8769	1.7657
											CHANNELS 3 Xrotation Yrotation Zrotation
											End Site
											{
												OFFSET	1.8022	-0.6204	1.2341
											}
										}
									}
								}
							}
						}
					}
				}
				JOINT RClavicle
				{
					OFFSET	-2.4084	23.0216	7.8873
					CHANNELS 3 Xrotation Yrotation Zrotation
					JOINT RShoulder
					{
						OFFSET	-14.0727	3.3027	-5.3441
						CHANNELS 3 Xrotation Yrotation Zrotation
						JOINT RForearm
						{
							OFFSET	-29.8880	-0.1061	-0.2590
							CHANNELS 3 Xrotation Yrotation Zrotation
							JOINT RHand
							{
								OFFSET	-24.9328	0.0724	-0.1493
								CHANNELS 3 Xrotation Yrotation Zrotation
								JOINT RFinger1
								{
									OFFSET	-9.6632	0.8451	2.6839
									CHANNELS 3 Xrotation Yrotation Zrotation
									JOINT RFinger11
									{
										OFFSET	-3.6146	-0.8814	0.6369
										CHANNELS 3 Xrotation Yrotation Zrotation
										JOINT RFinger12
										{
											OFFSET	-2.4676	-0.6020	0.4350
											CHANNELS 3 Xrotation Yrotation Zrotation
											End Site
											{
												OFFSET	-1.7559	-0.5242	0.2848
											}
										}
									}
								}
								JOINT RFinger2
								{
									OFFSET	-9.8075	0.9760	0.2337
									CHANNELS 3 Xrotation Yrotation Zrotation
									JOINT RFinger21
									{
										OFFSET	-4.4692	0.0125	-0.0264
										CHANNELS 3 Xrotation Yrotation Zrotation
										JOINT RFinger22
										{
											OFFSET	-2.4771	0.0075	-0.0151
											CHANNELS 3 Xrotation Yrotation Zrotation
											End Site
											{
												OFFSET	-2.2250	-0.1571	0.0030
											}
										}
									}
								}
								JOINT RFinger3
								{
									OFFSET	-9.2946	0.6512	-2.1989
									CHANNELS 3 Xrotation Yrotation Zrotation
									JOINT RFinger31
									{
										OFFSET	-4.0553	-0.2053	-0.2539
										CHANNELS 3 Xrotation Yrotation Zrotation
										JOINT RFinger32
										{
											OFFSET	-2.3109	-0.1162	-0.1452
											CHANNELS 3 Xrotation Yrotation Zrotation
											End Site
											{
												OFFSET	-2.0433	-0.2512	-0.0966
											}
										}
									}
								}
								JOINT RFinger4
								{
									OFFSET	-8.6250	-0.6555	-3.7976
									CHANNELS 3 Xrotation Yrotation Zrotation
									JOINT RFinger41
									{
										OFFSET	-2.4944	-0.5202	-0.6886
										CHANNELS 3 Xrotation Yrotation Zrotation
										JOINT RFinger42
										{
											OFFSET	-1.8291	-0.3810	-0.5052
											CHANNELS 3 Xrotation Yrotation Zrotation
											End Site
											{
												OFFSET	-1.6235	-0.4461	-0.3725
											}
										}
									}
								}
								JOINT RFinger0
								{
									OFFSET	-1.9989	-1.5130	1.5154
									CHANNELS 3 Xrotation Yrotation Zrotation
									JOINT RFinger01
									{
										OFFSET	-3.7218	-1.2224	2.8061
										CHANNELS 3 Xrotation Yrotation Zrotation
										JOINT RFinger02
										{
											OFFSET	-2.4508	-0.8769	1.7657
											CHANNELS 3 Xrotation Yrotation Zrotation
											End Site
											{
												OFFSET	-1.8022	-0.6204	1.2341
											}
										}
									}
								}
							}
						}
					}
				}
			}
		}
	}
	JOINT RThigh
	{
		OFFSET	-10.0287	4.2377	-0.8267
		CHANNELS 3 Xrotation Yrotation Zrotation
		JOINT RShin
		{
			OFFSET	-0.8025	-43.6204	0.0000
			CHANNELS 3 Xrotation Yrotation Zrotation
			JOINT RFoot
			{
				OFFSET	0.0000	-42.8326	0.0000
				CHANNELS 3 Xrotation Yrotation Zrotation
				JOINT RToe
				{
					OFFSET	0.0000	-4.8750	10.1942
					CHANNELS 3 Xrotation Yrotation Zrotation
					End Site
					{
						OFFSET	0.0000	0.0000	6.8389
					}
				}
			}
		}
	}
	JOINT LThigh
	{
		OFFSET	10.0286	4.2380	-0.8267
		CHANNELS 3 Xrotation Yrotation Zrotation
		JOINT LShin
		{
			OFFSET	0.8025	-43.6207	0.0000
			CHANNELS 3 Xrotation Yrotation Zrotation
			JOINT LFoot
			{
				OFFSET	0.0000	-42.8326	0.0000
				CHANNELS 3 Xrotation Yrotation Zrotation
				JOINT LToe
				{
					OFFSET	0.0000	-4.8750	10.1943
					CHANNELS 3 Xrotation Yrotation Zrotation
					End Site
					{
						OFFSET	0.0000	0.0000	6.8389
					}
				}
			}
		}
	}
}
MOTION
Frames:	6
Frame Time: 0.0333333000
	-3.1150	90.0579	40.8339	-1.911082	-3.375326	2.149875	0.000000	0.000000	0.000000	0.684547	0.340523	-0.432581	2.291579	1.117155	-1.457155	0.000000	0.000000	0.000000	0.000000	0.000000	0.000000	0.000000	0.000000	0.270378	-0.331771	-3.156139	0.841119	-4.866858	-8.122402	5.662144	0.000000	0.000000	0.000000	0.000000	0.000000	0.000000	0.000000	0.000000	0.000000	0.000000	0.000000	0.000000	0.000000	0.000000	0.000000	0.000000	0.000000	0.000000	0.000000	0.000000	0.000000	0.000000	0.000000	0.000000	0.000000	0.000000	0.000000	0.000000	0.000000	0.000000	0.000000	0.000000	0.000000	0.000000	0.000000	0.000000	0.000000	0.000000	0.000000	0.000000	0.000000	0.000000	0.000000	0.000000	0.000000	0.000000	0.000000	0.000000	0.000000	0.000000	0.934767	1.146410	7.280772	3.273771	-7.083750	9.898511	-8.274358	0.000000	0.000000	0.000000	0.000000	0.000000	0.000000	0.000000	0.000000	0.000000	0.000000	0.000000	0.000000	0.000000	0.000000	0.000000	0.000000	0.000000	0.000000	0.000000	0.000000	0.000000	0.000000	0.000000	0.000000	0.000000	0.000000	0.000000	0.000000	0.000000	0.000000	0.000000	0.000000	0.000000	0.000000	0.000000	0.000000	0.000000	0.000000	0.000000	0.000000	0.000000	0.000000	0.000000	0.000000	0.000000	0.000000	0.000000	0.000000	8.162321	-0.314169	-2.254917	-3.875707	0.043421	-1.291094	-2.848668	-5.369338	-2.731747	0.000000	0.000000	0.000000	7.458588	0.014543	-1.869061	-3.552564	-0.077534	2.509880	0.092723	1.970632	0.942703	0.000000	0.000000	0.000000
	-3.3816	90.1122	41.0467	-3.082307	-2.852499	1.378469	0.000000	0.000000	0.000000	1.076549	0.305721	-0.224356	3.522552	1.009222	-0.761480	0.000000	0.000000	0.000000	0.000000	0.000000	0.000000	0.000000	0.000000	-0.158392	-0.416925	-3.304885	0.237789	-5.529840	-9.501168	6.598871	0.000000	0.000000	0.000000	0.000000	0.000000	0.000000	0.000000	0.000000	0.000000	0.000000	0.000000	0.000000	0.000000	0.000000	0.000000	0.000000	0.000000	0.000000	0.000000	0.000000	0.000000	0.000000	0.000000	0.000000	0.000000	0.000000	0.000000	0.000000	0.000000	0.000000	0.000000	0.000000	0.000000	0.000000	0.000000	0.000000	0.000000	0.000000	0.000000	0.000000	0.000000	0.000000	0.000000	0.000000	0.000000	0.000000	0.000000	0.000000	0.000000	0.000000	1.268724	-0.006143	6.261679	4.047420	-9.114986	12.386280	-9.200870	0.000000	0.000000	0.000000	0.000000	0.000000	0.000000	0.000000	0.000000	0.000000	0.000000	0.000000	0.000000	0.000000	0.000000	0.000000	0.000000	0.000000	0.000000	0.000000	0.000000	0.000000	0.000000	0.000000	0.000000	0.000000	0.000000	0.000000	0.000000	0.000000	0.000000	0.000000	0.000000	0.000000	0.000000	0.000000	0.000000	0.000000	0.000000	0.000000	0.000000	0.000000	0.000000	0.000000	0.000000	0.000000	0.000000	0.000000	0.000000	9.833271	-0.289037	-1.234277	-4.213994	-0.036199	-1.517917	-1.969561	-6.113218	-3.054753	0.000000	0.000000	0.000000	8.647516	0.070402	-1.168422	-3.653790	0.050622	2.635202	0.299288	2.839898	1.350867	0.000000	0.000000	0.000000
	-3.5959	90.1213	41.2011	-4.282593	-2.312393	0.848066	0.000000	0.000000	0.000000	1.615802	0.256542	-0.100609	5.048607	0.873528	-0.328468	0.000000	0.000000	0.000000	0.000000	0.000000	0.000000	0.000000	0.000000	-0.996448	-1.412342	-3.223180	0.361810	-5.520850	-11.243500	7.102624	0.000000	0.000000	0.000000	0.000000	0.000000	0.000000	0.000000	0.000000	0.000000	0.000000	0.000000	0.000000	0.000000	0.000000	0.000000	0.000000	0.000000	0.000000	0.000000	0.000000	0.000000	0.000000	0.000000	0.000000	0.000000	0.000000	0.000000	0.000000	0.000000	0.000000	0.000000	0.000000	0.000000	0.000000	0.000000	0.000000	0.000000	0.000000	0.000000	0.000000	0.000000	0.000000	0.000000	0.000000	0.000000	0.000000	0.000000	0.000000	0.000000	0.000000	2.013457	-5.491321	4.713152	4.644226	-12.990040	15.866860	-7.580892	0.000000	0.000000	0.000000	0.000000	0.000000	0.000000	0.000000	0.000000	0.000000	0.000000	0.000000	0.000000	0.000000	0.000000	0.000000	0.000000	0.000000	0.000000	0.000000	0.000000	0.000000	0.000000	0.000000	0.000000	0.000000	0.000000	0.000000	0.000000	0.000000	0.000000	0.000000	0.000000	0.000000	0.000000	0.000000	0.000000	0.000000	0.000000	0.000000	0.000000	0.000000	0.000000	0.000000	0.000000	0.000000	0.000000	0.000000	0.000000	11.348350	-0.261153	-0.523256	-4.438874	-0.398677	-1.566482	-1.420458	-6.349328	-3.136380	0.000000	0.000000	0.000000	9.831397	0.128436	-0.615847	-3.829824	0.582506	2.666646	0.598462	3.066974	1.446244	0.000000	0.000000	0.000000
	-3.7133	90.1019	41.2934	-5.306685	-1.869115	0.635282	0.000000	0.000000	0.000000	2.201413	0.202047	-0.071699	6.644223	0.724730	-0.214664	0.000000	0.000000	0.000000	0.000000	0.000000	0.000000	0.000000	0.000000	-2.069667	-3.302822	-2.587813	0.623584	-6.130909	-13.928970	6.961371	0.000000	0.000000	0.000000	0.000000	0.000000	0.000000	0.000000	0.000000	0.000000	0.000000	0.000000	0.000000	0.000000	0.000000	0.000000	0.000000	0.000000	0.000000	0.000000	0.000000	0.000000	0.000000	0.000000	0.000000	0.000000	0.000000	0.000000	0.000000	0.000000	0.000000	0.000000	0.000000	0.000000	0.000000	0.000000	0.000000	0.000000	0.000000	0.000000	0.000000	0.000000	0.000000	0.000000	0.000000	0.000000	0.000000	0.000000	0.000000	0.000000	0.000000	3.048790	-13.828410	2.678827	5.227146	-18.250200	20.203980	-3.836105	0.000000	0.000000	0.000000	0.000000	0.000000	0.000000	0.000000	0.000000	0.000000	0.000000	0.000000	0.000000	0.000000	0.000000	0.000000	0.000000	0.000000	0.000000	0.000000	0.000000	0.000000	0.000000	0.000000	0.000000	0.000000	0.000000	0.000000	0.000000	0.000000	0.000000	0.000000	0.000000	0.000000	0.000000	0.000000	0.000000	0.000000	0.000000	0.000000	0.000000	0.000000	0.000000	0.000000	0.000000	0.000000	0.000000	0.000000	0.000000	12.458480	-0.255110	-0.232502	-4.549994	-0.953024	-1.445627	-1.140282	-6.034714	-2.961825	0.000000	0.000000	0.000000	10.805050	0.168557	-0.327938	-4.029997	1.379464	2.664764	0.860628	2.596311	1.217145	0.000000	0.000000	0.000000
	-3.7303	90.0832	41.3376	-5.903114	-1.638697	0.624304	0.000000	0.000000	0.000000	2.583594	0.166222	-0.078905	7.763671	0.617414	-0.259030	0.000000	0.000000	0.000000	0.000000	0.000000	0.000000	0.000000	0.000000	-2.815098	-6.983733	-1.184350	-0.281734	-9.510033	-18.202800	5.565391	0.000000	0.000000	0.000000	0.000000	0.000000	0.000000	0.000000	0.000000	0.000000	0.000000	0.000000	0.000000	0.000000	0.000000	0.000000	0.000000	0.000000	0.000000	0.000000	0.000000	0.000000	0.000000	0.000000	0.000000	0.000000	0.000000	0.000000	0.000000	0.000000	0.000000	0.000000	0.000000	0.000000	0.000000	0.000000	0.000000	0.000000	0.000000	0.000000	0.000000	0.000000	0.000000	0.000000	0.000000	0.000000	0.000000	0.000000	0.000000	0.000000	0.000000	3.841469	-19.192850	0.619008	6.371575	-22.132820	24.643720	-0.963447	0.000000	0.000000	0.000000	0.000000	0.000000	0.000000	0.000000	0.000000	0.000000	0.000000	0.000000	0.000000	0.000000	0.000000	0.000000	0.000000	0.000000	0.000000	0.000000	0.000000	0.000000	0.000000	0.000000	0.000000	0.000000	0.000000	0.000000	0.000000	0.000000	0.000000	0.000000	0.000000	0.000000	0.000000	0.000000	0.000000	0.000000	0.000000	0.000000	0.000000	0.000000	0.000000	0.000000	0.000000	0.000000	0.000000	0.000000	0.000000	13.048700	-0.269390	-0.247371	-4.626764	-1.325794	-1.282274	-0.976480	-5.631972	-2.754272	0.000000	0.000000	0.000000	11.389280	0.180587	-0.297807	-4.171397	1.899033	2.710035	0.851799	2.088288	0.980606	0.000000	0.000000	0.000000
	-3.7242	90.0760	41.3409	-6.134279	-1.587528	0.672821	0.000000	0.000000	0.000000	2.730483	0.152876	-0.084677	8.314649	0.563927	-0.323275	0.000000	0.000000	0.000000	0.000000	0.000000	0.000000	0.000000	0.000000	-3.174619	-12.356460	0.609799	-2.592582	-14.947270	-23.458620	2.920135	0.000000	0.000000	0.000000	0.000000	0.000000	0.000000	0.000000	0.000000	0.000000	0.000000	0.000000	0.000000	0.000000	0.000000	0.000000	0.000000	0.000000	0.000000	0.000000	0.000000	0.000000	0.000000	0.000000	0.000000	0.000000	0.000000	0.000000	0.000000	0.000000	0.000000	0.000000	0.000000	0.000000	0.000000	0.000000	0.000000	0.000000	0.000000	0.000000	0.000000	0.000000	0.000000	0.000000	0.000000	0.000000	0.000000	0.000000	0.000000	0.000000	0.000000	4.262668	-20.029960	-1.156910	8.503789	-23.637090	28.959720	-0.131406	0.000000	0.000000	0.000000	0.000000	0.000000	0.000000	0.000000	0.000000	0.000000	0.000000	0.000000	0.000000	0.000000	0.000000	0.000000	0.000000	0.000000	0.000000	0.000000	0.000000	0.000000	0.000000	0.000000	0.000000	0.000000	0.000000	0.000000	0.000000	0.000000	0.000000	0.000000	0.000000	0.000000	0.000000	0.000000	0.000000	0.000000	0.000000	0.000000	0.000000	0.000000	0.000000	0.000000	0.000000	0.000000	0.000000	0.000000	0.000000	13.238180	-0.283610	-0.335422	-4.622842	-1.420796	-1.186068	-0.944650	-5.526932	-2.700973	0.000000	0.000000	0.000000	11.619060	0.178467	-0.354150	-4.205884	2.011056	2.741113	0.725594	1.934827	0.910157	0.000000	0.000000	0.000000
